<svg id="90aa2cfd-6e3f-4275-ad86-00bcdc1479ff" data-name="Calque 1" xmlns="http://www.w3.org/2000/svg" viewBox="0 0 1792 1792"><title>bubble-faq</title><path d="M1153.2,1194.63c-170.07,41.42-294.07-62.82-294.07-174.43,0-107.18,105-184.55,221-184.55,116.7,0,221,77.95,221,184.55a162.65,162.65,0,0,1-37.71,103.74c-1,33.76,18.84,82.2,36.73,117.44C1252.21,1232.71,1184.06,1213.57,1153.2,1194.63ZM791.62,1020.21c0-139,129.43-252.07,288.49-252.07A326.57,326.57,0,0,1,1166,779.55c-.71-163.19-160.72-280.83-337.51-280.83-178.28,0-337.58,119.06-337.58,281.95a248.74,248.74,0,0,0,57.56,158.49c1.59,51.55-28.73,125.51-56.07,179.36,73.19-13.2,177.3-42.47,224.46-71.4a490.47,490.47,0,0,0,78.59,12.25A224.43,224.43,0,0,1,791.62,1020.21Z"/></svg>