<svg id="3bf0da16-edc3-4bfd-a5fc-e9173846db2a" data-name="Calque 1" xmlns="http://www.w3.org/2000/svg" viewBox="0 0 1792 1792"><title>cross-close</title><path d="M1212.67,1158.18l-261-261,261-260.95a25,25,0,0,0,0-35.18l-20.53-20.53a24.94,24.94,0,0,0-35.18,0L896,841.51,635.06,580.56a24.94,24.94,0,0,0-35.18,0L579.35,601.1a24.94,24.94,0,0,0,0,35.18L840.29,897.22l-261,261a24.94,24.94,0,0,0,0,35.18l20.52,20.53a25,25,0,0,0,35.18,0l261-261,261,261a24.94,24.94,0,0,0,35.18,0l20.53-20.53A24.94,24.94,0,0,0,1212.67,1158.18Z"/></svg>