<svg id="14b6797f-dea5-4d3b-8680-c3eaa3a42a16" data-name="Calque 1" xmlns="http://www.w3.org/2000/svg" viewBox="0 0 1792 1792"><title>formular-contact</title><path d="M953.81,1029.76l-12.06,84.89,84.88-12.06L1287.07,836s-5.53-30.22-28.69-49.53-50.06-23.16-50.06-23.16Z"/><path d="M1076.65,1216.51H539.58v-641H929.39V694.12c0,14.09,13.62,28.63,27.7,28.63h119.56v153l34.65-33.93V698L953.22,540.84H533c-14.09,0-28.08,11.46-28.08,25.55v659.11c0,14.09,14,25.67,28.08,25.67h551.81c14.09,0,26.47-11.58,26.47-25.67V1048.13l-34.65,37.72ZM964,593.17l47,47.46,47,47.47H964Z"/><path d="M959.64,935a13,13,0,0,0-12.78-13h-327a13,13,0,0,0,0,26h327A13,13,0,0,0,959.64,935Z"/><path d="M900.89,982.62h-281c-7.05,0-12.77,2.41-12.77,13s5.72,13,12.77,13h281c7.05,0,12.78-2.41,12.78-13S907.94,982.62,900.89,982.62Z"/><path d="M619.87,1060.59h235a13,13,0,0,0,0-26h-235a13,13,0,0,0,0,26Z"/><path d="M619.87,1112.56h281c7.05,0,12.78-2.41,12.78-13s-5.73-13-12.78-13h-281c-7.05,0-12.77,2.41-12.77,13S612.82,1112.56,619.87,1112.56Z"/><rect x="608.87" y="705.43" width="181.91" height="181.91"/></svg>