<svg id="35c0c2ba-d32e-42c3-8271-e89ca392bfc8" data-name="Calque 1" xmlns="http://www.w3.org/2000/svg" viewBox="0 0 1792 1792"><title>search</title><g id="de7882e6-11b2-4d96-acb8-3d838fd7f8b7" data-name="a"><path d="M1182.54,732.06q0-175.17-124-299.32Q935.7,310,760.5,310T461.18,432.75Q338.47,556.91,338.47,732.06t122.71,298q124.15,124.06,299.32,124t298-124q124.08-122.82,124-298M1012.43,478.84q105.14,105,105.18,253.22T1012.43,984Q908.64,1089.1,760.5,1089.17T507.28,984Q403.42,880.21,403.4,732.06T507.28,478.84Q612.32,375,760.5,375t251.92,103.89m429.82,902.5a31.94,31.94,0,0,0-9.74-23.37l-299.32-299.32a30.88,30.88,0,0,0-22.72-9.09A31.14,31.14,0,0,0,1078,1082a30.88,30.88,0,0,0,9.09,22.72l299.32,299.32a31.94,31.94,0,0,0,23.37,9.74,33.29,33.29,0,0,0,32.46-32.46Z"/></g></svg>