<svg version="1.2" baseProfile="tiny" xmlns="http://www.w3.org/2000/svg" viewBox="0 0 208.8 134.9" overflow="inherit"><path d="M42.9 23.8V82h8V31.1s-.7-7.3-8-7.3zm146.8 21.4c-6.1 0-11.6 2.9-15.1 7.4-3.5-4.5-9-7.4-15.1-7.4-10.5 0-19.1 8.6-19.1 19.1v17.5h8V64.3c0-6.1 5-11.1 11.1-11.1s11.1 5 11.1 11.1v17.5h8V64.3c0-6.1 5-11.1 11.1-11.1s11.1 5 11.1 11.1v17.5c7.4 0 8-7.4 8-7.4V64.2c0-10.5-8.5-19-19.1-19zm-170.6.3c-4.4 0-8.4 1.5-11.7 4H0v51.9s.6 7.4 8 7.4V80c3.1 2.3 7 3.6 11.1 3.6 10.5 0 19.1-8.6 19.1-19.1 0-10.5-8.6-19-19.1-19zm0 30.1C13 75.6 8 70.7 8 64.5c0-6.1 5-11.1 11.1-11.1s11.1 5 11.1 11.1c0 6.2-5 11.1-11.1 11.1zm55.8-30.4c-10.6 0-19.2 8.6-19.2 19.2s8.6 19.2 19.2 19.2S94.1 75 94.1 64.4s-8.6-19.2-19.2-19.2zm0 30.2c-6.1 0-11-4.9-11-11s4.9-11 11-11 11 4.9 11 11-4.9 11-11 11zm42.4-30.2c-10.6 0-19.2 8.6-19.2 19.2s8.6 19.2 19.2 19.2 19.2-8.6 19.2-19.2-8.6-19.2-19.2-19.2zm0 30.2c-6.1 0-11-4.9-11-11s4.9-11 11-11 11 4.9 11 11-4.9 11-11 11z" fill="#3F3F3E"/><linearGradient id="a" gradientUnits="userSpaceOnUse" x1="42.944" y1="29.309" x2="93.234" y2="29.309"><stop offset="0" stop-color="#83a8bc"/><stop offset="1" stop-color="#83a8bc" stop-opacity="0"/></linearGradient><path fill="url(#a)" d="M68.4 8c10 0 16.8 8.2 16.8 18.2v22.1c3.7 2.4 6.6 6.1 8 10.4v-33C93 11.5 82.6 0 68.3 0 54.7 0 44.1 10.4 42.9 23.8c7.3.1 8 7.4 8 7.4v-5C50.9 16.1 58.4 8 68.4 8z"/><linearGradient id="b" gradientUnits="userSpaceOnUse" x1=".002" y1="108.393" x2="50.908" y2="108.393"><stop offset="0" stop-color="#2d7f67"/><stop offset="1" stop-color="#2d7f67" stop-opacity="0"/></linearGradient><path fill="url(#b)" d="M42.9 81.9V108c0 10.4-7 18.9-17.4 18.9-10.2 0-17.2-8.1-17.5-18.2-7.4 0-7.9-7.4-7.9-7.4v7.1C.3 123 11 134.9 25.6 134.9c14.8 0 25.4-12 25.4-26.8V81.9h-8.1z"/></svg>