<?xml version="1.0" encoding="utf-8"?>
<!-- Generator: Adobe Illustrator 21.0.0, SVG Export Plug-In . SVG Version: 6.00 Build 0)  -->
<svg version="1.2" baseProfile="tiny" id="Layer_1" xmlns="http://www.w3.org/2000/svg" xmlns:xlink="http://www.w3.org/1999/xlink"
	 x="0px" y="0px" viewBox="0 0 208.8 134.9" overflow="inherit" xml:space="preserve">
<g>
	<path fill="#3F3F3E" d="M42.9,23.8v58.2h8V31.1C50.9,31.1,50.2,23.8,42.9,23.8z"/>
	<path fill="#3F3F3E" d="M189.7,45.2c-6.1,0-11.6,2.9-15.1,7.4c-3.5-4.5-9-7.4-15.1-7.4h0c-10.5,0-19.1,8.6-19.1,19.1l0,17.5h8V64.3
		c0-6.1,5-11.1,11.1-11.1c6.1,0,11.1,5,11.1,11.1v17.5h8V64.3c0-6.1,5-11.1,11.1-11.1c6.1,0,11.1,5,11.1,11.1l0,17.5
		c7.4,0,8-7.4,8-7.4l0-10.2C208.8,53.7,200.3,45.2,189.7,45.2z"/>
	<path fill="#3F3F3E" d="M19.1,45.5c-4.4,0-8.4,1.5-11.7,4H0l0,51.9c0,0,0.6,7.4,8,7.4V80c3.1,2.3,7,3.6,11.1,3.6
		c10.5,0,19.1-8.6,19.1-19.1C38.2,54,29.6,45.5,19.1,45.5z M19.1,75.6C13,75.6,8,70.7,8,64.5c0-6.1,5-11.1,11.1-11.1
		c6.1,0,11.1,5,11.1,11.1C30.2,70.7,25.2,75.6,19.1,75.6z"/>
	<path fill="#3F3F3E" d="M74.9,45.2c-10.6,0-19.2,8.6-19.2,19.2c0,10.6,8.6,19.2,19.2,19.2c10.6,0,19.2-8.6,19.2-19.2
		C94.1,53.8,85.5,45.2,74.9,45.2z M74.9,75.4c-6.1,0-11-4.9-11-11c0-6.1,4.9-11,11-11c6.1,0,11,4.9,11,11
		C85.9,70.5,81,75.4,74.9,75.4z"/>
	<path fill="#3F3F3E" d="M117.3,45.2c-10.6,0-19.2,8.6-19.2,19.2c0,10.6,8.6,19.2,19.2,19.2c10.6,0,19.2-8.6,19.2-19.2
		C136.5,53.8,127.9,45.2,117.3,45.2z M117.3,75.4c-6.1,0-11-4.9-11-11c0-6.1,4.9-11,11-11c6.1,0,11,4.9,11,11
		C128.3,70.5,123.4,75.4,117.3,75.4z"/>
</g>
<linearGradient id="SVGID_1_" gradientUnits="userSpaceOnUse" x1="42.9443" y1="29.3093" x2="93.2343" y2="29.3093">
	<stop  offset="0" style="stop-color:#83A8BC"/>
	<stop  offset="1" style="stop-color:#83A8BC;stop-opacity:0"/>
</linearGradient>
<path fill="url(#SVGID_1_)" d="M68.4,8c10,0,16.8,8.2,16.8,18.2v22.1c3.7,2.4,6.6,6.1,8,10.4V25.7h0C93,11.5,82.6,0,68.3,0
	C54.7,0,44.1,10.4,42.9,23.8c7.3,0.1,8,7.4,8,7.4v-5C50.9,16.1,58.4,8,68.4,8z"/>
<linearGradient id="SVGID_2_" gradientUnits="userSpaceOnUse" x1="1.961370e-03" y1="108.393" x2="50.9082" y2="108.393">
	<stop  offset="0" style="stop-color:#2D7F67"/>
	<stop  offset="1" style="stop-color:#2D7F67;stop-opacity:0"/>
</linearGradient>
<path fill="url(#SVGID_2_)" d="M42.9,81.9l0,26.1c0,10.4-7,18.9-17.4,18.9c-10.2,0-17.2-8.1-17.5-18.2l0,0c-7.4,0-7.9-7.4-7.9-7.4
	l0,7.1h0c0.2,14.6,10.9,26.5,25.5,26.5c14.8,0,25.4-12,25.4-26.8V81.9H42.9z"/>
</svg>
